<svg width="60" height="60" viewBox="0 0 60 60" fill="none" xmlns="http://www.w3.org/2000/svg">
<path fill-rule="evenodd" clip-rule="evenodd" d="M46.1586 40C42.8082 45.4022 36.8242 49 30 49C23.1757 49 17.1918 45.4022 13.8414 40H7.0802C10.938 48.8295 19.7484 55 30 55C40.2516 55 49.062 48.8295 52.9198 40H46.1586ZM13.8414 20C17.1918 14.5978 23.1757 11 30 11C36.8242 11 42.8082 14.5978 46.1586 20H52.9198C49.062 11.1705 40.2516 5 30 5C19.7484 5 10.938 11.1705 7.0802 20H13.8414Z" fill="#ED7D3A"/>
<rect y="27" width="60" height="6" fill="#ED7D3A"/>
</svg>
